<?xml version="1.0" encoding="utf-8"?>
<!-- Generator: Adobe Illustrator 27.5.0, SVG Export Plug-In . SVG Version: 6.00 Build 0)  -->
<svg version="1.1" xmlns="http://www.w3.org/2000/svg" xmlns:xlink="http://www.w3.org/1999/xlink" x="0px" y="0px"
	 viewBox="0 0 500 500" style="enable-background:new 0 0 500 500;" xml:space="preserve">
<g id="Background_Complete" style="display:none;">
	<g style="display:inline;">
		<rect y="382.398" style="fill:#EBEBEB;" width="500" height="0.25"/>
		<rect x="416.779" y="398.494" style="fill:#EBEBEB;" width="33.122" height="0.25"/>
		<rect x="322.527" y="401.208" style="fill:#EBEBEB;" width="8.693" height="0.25"/>
		<rect x="396.586" y="389.208" style="fill:#EBEBEB;" width="19.192" height="0.25"/>
		<rect x="52.459" y="390.888" style="fill:#EBEBEB;" width="43.193" height="0.25"/>
		<rect x="104.556" y="390.888" style="fill:#EBEBEB;" width="6.333" height="0.25"/>
		<rect x="131.471" y="395.111" style="fill:#EBEBEB;" width="93.676" height="0.25"/>
		<path style="fill:#EBEBEB;" d="M237.014,337.8H43.915c-3.147,0-5.708-2.561-5.708-5.708V60.66c0-3.147,2.561-5.708,5.708-5.708
			h193.099c3.146,0,5.707,2.561,5.707,5.708v271.432C242.721,335.239,240.16,337.8,237.014,337.8z M43.915,55.203
			c-3.01,0-5.458,2.448-5.458,5.458v271.432c0,3.01,2.448,5.458,5.458,5.458h193.099c3.009,0,5.457-2.448,5.457-5.458V60.66
			c0-3.009-2.448-5.458-5.457-5.458H43.915z"/>
		<path style="fill:#EBEBEB;" d="M453.31,337.8H260.212c-3.147,0-5.707-2.561-5.707-5.708V60.66c0-3.147,2.561-5.708,5.707-5.708
			H453.31c3.148,0,5.708,2.561,5.708,5.708v271.432C459.019,335.239,456.458,337.8,453.31,337.8z M260.212,55.203
			c-3.009,0-5.457,2.448-5.457,5.458v271.432c0,3.01,2.448,5.458,5.457,5.458H453.31c3.01,0,5.458-2.448,5.458-5.458V60.66
			c0-3.009-2.448-5.458-5.458-5.458H260.212z"/>
	</g>
	<g style="display:inline;">
		<g>
			
				<rect x="219.101" y="254.527" transform="matrix(-1 -1.224647e-16 1.224647e-16 -1 456.8246 636.9255)" style="fill:#E6E6E6;" width="18.622" height="127.87"/>
			<polygon style="fill:#F0F0F0;" points="225.656,382.398 219.101,382.398 219.101,358.097 232.529,358.097 			"/>
			
				<rect x="416.024" y="254.527" transform="matrix(-1 -1.224647e-16 1.224647e-16 -1 850.6696 636.9255)" style="fill:#E6E6E6;" width="18.622" height="127.87"/>
			
				<rect x="219.101" y="254.527" transform="matrix(-1 -1.224647e-16 1.224647e-16 -1 640.8457 630.2928)" style="fill:#F0F0F0;" width="202.643" height="121.238"/>
			<polygon style="fill:#F0F0F0;" points="415.189,382.398 421.745,382.398 421.745,358.097 408.316,358.097 			"/>
			<g>
				
					<rect x="334.826" y="284.677" transform="matrix(6.123234e-17 -1 1 6.123234e-17 70.2592 699.6826)" style="fill:#E6E6E6;" width="100.291" height="60.07"/>
				<path style="fill:#F0F0F0;" d="M379.03,268.094h11.884c5.162,0,10.097-1.855,13.647-5.13l0,0h-39.179h0
					C368.933,266.238,373.868,268.094,379.03,268.094z"/>
			</g>
			<g>
				
					<rect x="270.277" y="284.677" transform="matrix(6.123234e-17 -1 1 6.123234e-17 5.7108 635.1342)" style="fill:#E6E6E6;" width="100.291" height="60.07"/>
				<path style="fill:#F0F0F0;" d="M313.875,268.094h11.884c5.162,0,10.097-1.855,13.647-5.13l0,0h-39.179l0,0
					C303.778,266.238,308.713,268.094,313.875,268.094z"/>
			</g>
			<g>
				
					<rect x="205.729" y="284.677" transform="matrix(6.123234e-17 -1 1 6.123234e-17 -58.8377 570.5857)" style="fill:#E6E6E6;" width="100.291" height="60.07"/>
				<path style="fill:#F0F0F0;" d="M249.326,268.094h11.884c5.162,0,10.097-1.855,13.647-5.13l0,0h-39.179l0,0
					C239.229,266.238,244.164,268.094,249.326,268.094z"/>
			</g>
		</g>
		<g>
			<g>
				
					<rect x="74.607" y="96.778" transform="matrix(-1 -1.224647e-16 1.224647e-16 -1 276.2734 479.1762)" style="fill:#F0F0F0;" width="127.06" height="285.621"/>
				
					<rect x="74.607" y="96.778" transform="matrix(-1 -1.224647e-16 1.224647e-16 -1 273.5919 479.1762)" style="fill:#F5F5F5;" width="124.379" height="285.621"/>
				
					<rect x="0.467" y="184.979" transform="matrix(-1.836970e-16 1 -1 -1.836970e-16 376.3841 102.7924)" style="fill:#F0F0F0;" width="272.658" height="109.219"/>
				<path style="fill:#FAFAFA;" d="M180.673,153.967L180.673,153.967c0-16.445-13.331-29.776-29.776-29.776h-28.201
					c-16.445,0-29.776,13.331-29.776,29.776l0,0H180.673z"/>
				
					<rect x="104.227" y="282.523" transform="matrix(-1.836970e-16 1 -1 -1.836970e-16 463.1954 189.6037)" style="fill:#F5F5F5;" width="65.137" height="87.754"/>
				<rect x="141.966" y="172.333" style="fill:#F5F5F5;" width="38.707" height="113.094"/>
				<rect x="92.92" y="172.333" style="fill:#F5F5F5;" width="38.707" height="113.094"/>
				<path style="fill:#E0E0E0;" d="M106.957,228.372H91.104c-1.353,0-2.459-1.107-2.459-2.459l0,0c0-1.352,1.106-2.459,2.459-2.459
					h15.854c1.353,0,2.459,1.107,2.459,2.459l0,0C109.416,227.266,108.31,228.372,106.957,228.372z"/>
				
					<rect x="-53.16" y="238.605" transform="matrix(-1.836970e-16 1 -1 -1.836970e-16 322.7574 156.4191)" style="fill:#F0F0F0;" width="272.658" height="1.966"/>
			</g>
		</g>
		<g>
			<g>
				<g>
					
						<rect x="282.034" y="82.333" transform="matrix(-1 -1.224647e-16 1.224647e-16 -1 698.8133 305.5126)" style="fill:#E6E6E6;" width="134.745" height="140.846"/>
					
						<rect x="278.638" y="82.333" transform="matrix(-1 -1.224647e-16 1.224647e-16 -1 692.02 305.5126)" style="fill:#F5F5F5;" width="134.745" height="140.846"/>
					
						<rect x="270.772" y="223.179" transform="matrix(-1 -1.224647e-16 1.224647e-16 -1 687.5506 453.6756)" style="fill:#E6E6E6;" width="146.008" height="7.317"/>
					
						<rect x="266.948" y="223.179" transform="matrix(-1 -1.224647e-16 1.224647e-16 -1 672.383 453.6756)" style="fill:#F5F5F5;" width="138.488" height="7.317"/>
					
						<rect x="282.162" y="91.481" transform="matrix(-1.836970e-16 1 -1 -1.836970e-16 498.7664 -193.2537)" style="fill:#FFFFFF;" width="127.696" height="122.551"/>
					
						<rect x="282.162" y="149.36" transform="matrix(-1.836970e-16 1 -1 -1.836970e-16 498.7664 -193.2536)" style="fill:#F5F5F5;" width="127.696" height="6.793"/>
					
						<rect x="222.171" y="151.472" transform="matrix(-1.836970e-16 1 -1 -1.836970e-16 438.7747 -133.2621)" style="fill:#E6E6E6;" width="127.696" height="2.568"/>
					
						<rect x="286.843" y="151.472" transform="matrix(-1.836970e-16 1 -1 -1.836970e-16 503.4469 -197.9342)" style="fill:#E6E6E6;" width="127.696" height="2.568"/>
				</g>
			</g>
		</g>
		<g>
			<g>
				<path style="fill:#E6E6E6;" d="M300.148,226.531c-2.479-25.676-4.203-67.341-2.864-81.277c0.046-0.484,0.303-0.919,0.696-1.206
					l0,0c1.155-0.842,2.773,0.008,2.724,1.436c-0.236,6.905-0.507,24.163,0.962,53.936c0.732,14.82,1.787,24.97,1.062,27.111
					H300.148z"/>
				<path style="fill:#E6E6E6;" d="M290.91,167.345c-7.055-7.835-21.467-13.407-36.153-13.378
					c-5.766,0.011,17.54,9.115,27.233,19.161c7.53,7.804,16.019,20.932,18.906,28.219
					C299.03,186.015,297.965,175.181,290.91,167.345z"/>
				<path style="fill:#E6E6E6;" d="M304.896,169.736c5.859-8.161,19.386-14.436,34.02-15.145
					c5.746-0.278-16.114,9.962-24.271,20.458c-6.337,8.153-12.835,21.659-14.623,29.063
					C299.593,188.744,299.037,177.897,304.896,169.736z"/>
				<path style="fill:#E6E6E6;" d="M290.595,138.736c-5.974-6.635-18.178-11.353-30.613-11.328
					c-4.882,0.01,14.853,7.718,23.061,16.225c6.376,6.608,13.564,17.725,16.009,23.895
					C297.47,154.545,296.569,145.371,290.595,138.736z"/>
				<path style="fill:#E6E6E6;" d="M302.438,148.548c4.962-6.91,16.415-12.224,28.807-12.825
					c4.865-0.236-13.645,8.436-20.552,17.323c-5.366,6.904-10.868,18.34-12.382,24.61
					C297.948,164.643,297.476,155.459,302.438,148.548z"/>
			</g>
			<g>
				<path style="fill:#E6E6E6;" d="M301.142,254.527L301.142,254.527c-7.73,0-14.118-6.031-14.562-13.748l-1.288-22.324h31.7
					l-1.288,22.324C315.26,248.497,308.872,254.527,301.142,254.527z"/>
				<polygon style="fill:#E6E6E6;" points="319.045,223.529 283.24,223.529 282.214,214.24 320.07,214.24 				"/>
			</g>
		</g>
	</g>
</g>
<g id="Background_Simple">
	<g>
		<path style="fill:#407BFF;" d="M284.959,98.068c-38.029,39.344-57.92,42.187-106.103,63.952
			c-39.392,17.794-78.398,52.381-91.704,95.477c-35.053,113.53,120.75,127.727,194.316,109.193
			c51.795-13.049,72.516-43.102,85.631-92.957c5.101-19.39,6.589-40.362,14.991-58.815c9.027-19.825,27.512-29.477,36.714-46.883
			C463.408,83.666,335.651,45.624,284.959,98.068z"/>
		<path style="opacity:0.9;fill:#FFFFFF;" d="M284.959,98.068c-38.029,39.344-57.92,42.187-106.103,63.952
			c-39.392,17.794-78.398,52.381-91.704,95.477c-35.053,113.53,120.75,127.727,194.316,109.193
			c51.795-13.049,72.516-43.102,85.631-92.957c5.101-19.39,6.589-40.362,14.991-58.815c9.027-19.825,27.512-29.477,36.714-46.883
			C463.408,83.666,335.651,45.624,284.959,98.068z"/>
	</g>
</g>
<g id="Shadow_1_">
	<ellipse id="_x3C_Path_x3E__109_" style="fill:#F5F5F5;" cx="250" cy="416.238" rx="193.889" ry="11.323"/>
</g>
<g id="Window">
	<g>
		<g>
			<g>
				<path style="fill:#263238;" d="M52.301,113.525c0-3.453,2.825-6.279,6.279-6.279H338.8c3.453,0,6.279,2.825,6.279,6.279v20.211
					H52.301V113.525z"/>
				<path style="fill:#F0F0F0;" d="M103.067,125.795c-2.924,0-5.304-2.379-5.304-5.303c0-2.924,2.379-5.303,5.304-5.303
					c2.924,0,5.303,2.379,5.303,5.303C108.37,123.416,105.991,125.795,103.067,125.795z M103.067,116.3
					c-2.311,0-4.192,1.881-4.192,4.192c0,2.311,1.88,4.192,4.192,4.192c2.311,0,4.192-1.881,4.192-4.192
					C107.258,118.18,105.378,116.3,103.067,116.3z"/>
				<path style="fill:#F0F0F0;" d="M86.245,125.795c-2.924,0-5.303-2.379-5.303-5.303c0-2.924,2.379-5.303,5.303-5.303
					s5.304,2.379,5.304,5.303C91.548,123.416,89.169,125.795,86.245,125.795z M86.245,116.3c-2.311,0-4.192,1.881-4.192,4.192
					c0,2.311,1.88,4.192,4.192,4.192s4.192-1.881,4.192-4.192C90.436,118.18,88.556,116.3,86.245,116.3z"/>
				<path style="fill:#F0F0F0;" d="M69.422,125.795c-2.924,0-5.304-2.379-5.304-5.303c0-2.924,2.379-5.303,5.304-5.303
					c2.924,0,5.303,2.379,5.303,5.303C74.726,123.416,72.347,125.795,69.422,125.795z M69.422,116.3
					c-2.311,0-4.192,1.881-4.192,4.192c0,2.311,1.88,4.192,4.192,4.192c2.311,0,4.192-1.881,4.192-4.192
					C73.614,118.18,71.734,116.3,69.422,116.3z"/>
				<path style="fill:#407BFF;" d="M338.8,326.573H58.579c-3.453,0-6.279-2.825-6.279-6.279V133.736h292.778v186.558
					C345.079,323.748,342.253,326.573,338.8,326.573z"/>
				<rect x="54.079" y="139.106" style="fill:#FFFFFF;" width="289.222" height="165.333"/>
				<path style="fill:#407BFF;" d="M182.229,175.612H72.063c-2.104,0-3.81-1.706-3.81-3.81V157.09c0-2.104,1.706-3.81,3.81-3.81
					h110.167c2.104,0,3.81,1.706,3.81,3.81v14.712C186.039,173.906,184.333,175.612,182.229,175.612z"/>
				<path style="fill:#407BFF;" d="M325.317,154.279c1.55,0,2.81,1.261,2.81,2.811v14.712c0,1.549-1.261,2.81-2.81,2.81H215.151
					c-1.55,0-2.811-1.261-2.811-2.81V157.09c0-1.55,1.261-2.811,2.811-2.811H325.317 M325.317,153.279H215.151
					c-2.104,0-3.811,1.706-3.811,3.811v14.712c0,2.104,1.706,3.81,3.811,3.81h110.166c2.104,0,3.81-1.706,3.81-3.81V157.09
					C329.128,154.985,327.422,153.279,325.317,153.279L325.317,153.279z"/>
			</g>
			<g>
				<g>
					<path style="fill:#407BFF;" d="M87.832,185.613c10.245,0,18.58,8.335,18.58,18.58c0,10.245-8.335,18.58-18.58,18.58
						c-10.245,0-18.58-8.335-18.58-18.58C69.252,193.948,77.587,185.613,87.832,185.613 M87.832,184.613
						c-10.814,0-19.58,8.767-19.58,19.58c0,10.813,8.766,19.58,19.58,19.58c10.813,0,19.58-8.766,19.58-19.58
						C107.412,193.38,98.646,184.613,87.832,184.613L87.832,184.613z"/>
					<path style="opacity:0.4;fill:#407BFF;" d="M102.038,211.889c-2.726,5.037-8.063,8.462-14.207,8.462
						c-6.143,0-11.481-3.426-14.207-8.462c4.068-2.718,8.95-4.304,14.207-4.304C93.088,207.584,97.97,209.171,102.038,211.889z"/>
					<circle style="opacity:0.4;fill:#407BFF;" cx="87.832" cy="198.663" r="7.198"/>
				</g>
				<path style="opacity:0.4;fill:#407BFF;" d="M319.063,214.258H128.477c-5.559,0-10.065-4.506-10.065-10.065l0,0
					c0-5.559,4.506-10.065,10.065-10.065h190.586c5.559,0,10.065,4.506,10.065,10.065l0,0
					C329.128,209.752,324.621,214.258,319.063,214.258z"/>
			</g>
			<g>
				<g>
					<path style="fill:#407BFF;" d="M87.832,238.946c10.245,0,18.58,8.335,18.58,18.58c0,10.245-8.335,18.58-18.58,18.58
						c-10.245,0-18.58-8.335-18.58-18.58C69.252,247.281,77.587,238.946,87.832,238.946 M87.832,237.946
						c-10.814,0-19.58,8.766-19.58,19.58c0,10.813,8.766,19.58,19.58,19.58c10.813,0,19.58-8.766,19.58-19.58
						C107.412,246.712,98.646,237.946,87.832,237.946L87.832,237.946z"/>
					<path style="opacity:0.4;fill:#407BFF;" d="M102.038,265.221c-2.726,5.037-8.063,8.462-14.207,8.462
						c-6.143,0-11.481-3.426-14.207-8.462c4.068-2.718,8.95-4.304,14.207-4.304C93.088,260.917,97.97,262.504,102.038,265.221z"/>
					<circle style="opacity:0.4;fill:#407BFF;" cx="87.832" cy="251.995" r="7.198"/>
				</g>
				<path style="opacity:0.4;fill:#407BFF;" d="M319.063,267.591H128.477c-5.559,0-10.065-4.506-10.065-10.065v0
					c0-5.559,4.506-10.065,10.065-10.065h190.586c5.559,0,10.065,4.506,10.065,10.065v0
					C329.128,263.085,324.621,267.591,319.063,267.591z"/>
			</g>
		</g>
		<path style="opacity:0.1;" d="M272.12,267.3c0,6.13,0.6,12.23,1.79,18.22c-11.16,6.62-18.39,18.81-18.39,32.23
			c0,3.04,0.36,5.99,1.05,8.82h82.23c3.45,0,6.28-2.82,6.28-6.28V176.33C303.38,185.59,272.12,222.86,272.12,267.3z"/>
	</g>
</g>
<g id="Character_1_">
	<g>
		<g>
			<g>
				<g>
					
						<ellipse transform="matrix(0.7071 -0.7071 0.7071 0.7071 -84.8002 337.7544)" style="fill:#407BFF;" cx="365.306" cy="271.24" rx="83.189" ry="83.189"/>
					
						<ellipse transform="matrix(0.7071 -0.7071 0.7071 0.7071 -84.6087 337.9992)" style="fill:#FFFFFF;" cx="365.697" cy="271.131" rx="75.836" ry="75.836"/>
				</g>
				<g>
					<path style="fill:#7F3E3B;" d="M340.113,220.249l-4.841,6.198c0,0-4.25,3.227-5.859,5.983
						c-1.882,1.864-3.606,3.769-5.306,5.775c-1.913,2.278-3.73,4.658-5.436,7.211c-1.669,2.588-3.299,5.257-4.522,8.591
						c-0.59,1.688-1.158,3.516-1.209,5.991c-0.012,1.235,0.144,2.686,0.756,4.249c0.6,1.563,1.787,3.149,3.172,4.199l1.063,0.805
						l1.59,0.301c3.203,0.606,6.388,0.905,9.522,0.934c0.068,0.001,1.194-0.105,1.261-0.105l-1.272-12.652
						c-1.074,0.04-3.37,0.21-4.424,0.187c0.037-0.195,0.078-0.394,0.127-0.596c0.509-2.127,1.478-4.596,2.607-6.99
						c1.119-2.424,2.408-4.856,3.75-7.283c1.177-2.135,2.442-4.287,3.677-6.386l5.985-3.777l3.518-6.233L340.113,220.249z
						 M324.5,259.751c-0.02-0.074-0.03-0.176-0.037-0.29c0.042,0.084,0.074,0.165,0.088,0.23
						C324.621,259.929,324.545,259.944,324.5,259.751z"/>
					<path style="fill:#7F3E3B;" d="M374.19,233.648c0.153-0.768-0.092-0.82-0.287-0.816c-0.153,0.003-0.636,0.375-0.748,0.838
						c-0.929,1.442-2.076,2.687-3.593,3.782c-0.197,0.142-0.389,0.287-0.599,0.424c-1.925,1.26-3.941,1.864-5.895,1.941
						c0.039,0.21,0.078,0.42,0.11,0.63c0.077,0.492,0.131,0.981,0.165,1.467c0.224,3.19-0.607,6.153-4.198,7.847
						c-0.014,0.199-0.489,0.406-0.649,0.549c-1.003,0.893-2.396,2.852-2.38,4.549c0.011,1.305,1.222,2.331,2.658,3.571l2.022,1.353
						l2.739-0.261c8.412-2.47,12.333-10.156,12.153-10.724C373.509,245.239,373.539,239.033,374.19,233.648z"/>
					<path style="fill:#407BFF;" d="M392.374,251.869c0,0-0.564-0.103-1.527-0.257c-1.992-0.319-10.916-2.337-15.223-2.726
						c-0.001,0.003-0.003,0.004-0.005,0.007c-1.013,2.122-4.275,7.323-12.688,9.793l-2.081,0.493l-1.959-1.041
						c-1.436-1.24-2.172-2.53-2.183-3.835c-0.015-1.697,1.177-3.117,2.18-4.01c0.076-0.067,0.131-0.146,0.173-0.231
						c-0.018-0.242-0.02-0.398,0.004-0.421c-0.627,0.079-8.602,1.292-9.279,1.399c-10.381,1.647-22.068,6.127-22.068,6.127
						l0.083,0.718l1.445,12.6l0.546,4.767c0,0,4.009-0.448,9.25-1.373c-1.437,12.743-1.71,31.201,2.657,54.933
						c4.602-0.086,17.072-0.334,17.072-0.32c12.257-0.23,25.118-0.472,29.658-0.557c0.122-1.995-0.096-6.136-0.313-11.796
						l-0.267-8.735c-0.162-7.72-0.128-16.98,0.564-26.928c0.109-1.565,0.237-3.149,0.381-4.746c0.002,0.002,0.004,0.004,0.005,0.006
						c6.061,6.557,12.132,12.817,12.132,12.817l2.864-2.762c3.671-1.775,6.562-4.939,9.084-8.756l3.366-3.245
						C416.247,273.79,400.572,253.247,392.374,251.869z"/>
					<path style="opacity:0.3;" d="M384.16,270.644c0.219,2.058,0.886,4.077,1.95,5.895l2.303,3.938
						c0.109-1.565,0.237-3.149,0.381-4.746C387.213,274.02,385.632,272.289,384.16,270.644z"/>
					<path style="opacity:0.3;" d="M388.8,275.737c-0.002-0.002-0.003-0.004-0.005-0.006c-0.144,1.596-0.272,3.181-0.381,4.746
						l0.002,0.003C388.524,278.916,388.656,277.331,388.8,275.737z"/>
					<path style="fill:#7F3E3B;" d="M363.066,239.817c0.039,0.21,0.078,0.421,0.111,0.63
						C363.145,240.237,363.106,240.027,363.066,239.817C363.067,239.817,363.067,239.817,363.066,239.817z"/>
					<path style="opacity:0.2;" d="M363.342,241.914c-0.034-0.485-0.088-0.975-0.165-1.467
						C363.252,240.939,363.312,241.429,363.342,241.914z"/>
					<path style="fill:#7F3E3B;" d="M369.561,237.452c-0.197,0.143-0.389,0.287-0.599,0.424c-1.925,1.26-3.941,1.864-5.895,1.941
						c0.039,0.21,0.078,0.42,0.11,0.63c0.077,0.492,0.131,0.981,0.165,1.467c0.002,0.028,0.008,0.057,0.01,0.085
						C365.502,241.649,368.304,239.672,369.561,237.452z"/>
					<path style="fill:#FFFFFF;" d="M380.786,250.406c-0.18-0.809-0.799-1.492-1.657-1.696l-2.078-0.495
						c-0.546-0.131-1.085,0.113-1.365,0.583c-0.02,0.034-0.05,0.06-0.067,0.096c-1.013,2.122-4.275,7.323-12.688,9.793l-0.654,0.155
						c0,0,0,0,0,0l-1.427,0.338l-1.959-1.041c-1.436-1.24-2.172-2.53-2.183-3.835c-0.015-1.697,1.177-3.117,2.18-4.01
						c0.076-0.067,0.245-0.286,0.287-0.371c0.09-0.23,0.072-0.345-0.089-0.446c-2.201-1.589-7.151,0.862-7.347,1.288
						c-0.211,0.204-0.421,0.428-0.626,0.676c-1.007,1.213-1.856,2.958-1.599,5.3c0.57,5.201,4.883,7.662,5.066,7.764
						c0.045,0.025,0.094,0.037,0.143,0.037c0.055,0,0.11-0.016,0.158-0.046c0.091-0.058,0.144-0.162,0.136-0.269
						c-0.01-0.149-0.193-3.618,3.702-5.512l1.753,0.931c-7.525,30.866-2.42,67.851-2.279,68.853c0.37-0.006,0.58-0.009,0.58-0.007
						c0-0.014,0.011-0.023,0.009-0.037c-0.054-0.374-5.306-37.688,2.274-68.719l1.837-0.435c2.129,2.601,1.119,6.461,1.108,6.5
						c-0.029,0.109,0.006,0.226,0.092,0.3c0.055,0.047,0.123,0.072,0.193,0.072c0.04,0,0.08-0.008,0.118-0.024
						c0.4-0.175,9.857-4.323,13.164-8.271c1.964-2.345,2.836-4.829,3.221-6.498C380.865,251.049,380.855,250.719,380.786,250.406z"
						/>
					<path style="opacity:0.2;" d="M369.561,237.452c-0.197,0.143-0.389,0.287-0.599,0.424c-1.925,1.26-3.941,1.864-5.895,1.941
						c0.039,0.21,0.078,0.42,0.11,0.63c0.077,0.492,0.131,0.981,0.165,1.467c0.002,0.028,0.008,0.057,0.01,0.085
						C365.502,241.649,368.304,239.672,369.561,237.452z"/>
					<path style="fill:#263238;" d="M355.01,214.121c1.006-1.796,2.225-3.422,3.67-4.725c-0.685-0.515-1.262-1.096-1.696-1.748
						c-1.575,0.739-3.063,2.832-3.835,7.508c-0.2,1.209-0.199,2.319-0.083,3.349c0.303-0.88,0.647-1.749,1.034-2.593L355.01,214.121
						z"/>
					<path style="fill:#7F3E3B;" d="M373.596,226.397c4.513-5.223,1.643-11.875-0.997-13.372c0.488-6.982-9.555-7.895-13.918-3.63
						c-1.444,1.303-2.664,2.929-3.67,4.725l-0.909,1.79c-0.387,0.844-0.731,1.713-1.034,2.593c-1.161,3.367-1.715,6.895-1.7,9.828
						c0.033,6.692,5.552,11.727,11.7,11.485c0,0,0,0,0.001,0c1.954-0.077,3.97-0.682,5.895-1.941
						c0.21-0.137,0.402-0.281,0.599-0.424c1.517-1.096,2.664-2.34,3.593-3.782C375.402,230.076,374.815,228.266,373.596,226.397z"/>
					<path style="fill:#263238;" d="M353.553,215.316c-0.143,0.178-0.114,0.439,0.064,0.582c0.079,0.063,0.173,0.093,0.267,0.091
						c0.078-0.001,0.151-0.033,0.218-0.077c0.034-0.023,0.07-0.044,0.097-0.077c1.167-1.453,2.668-1.378,2.734-1.374
						c0.221,0.014,0.424-0.158,0.439-0.385c0.015-0.227-0.155-0.424-0.382-0.441c-0.054-0.004-0.955-0.043-1.979,0.486
						C354.526,214.371,354.017,214.738,353.553,215.316z"/>
					<path style="fill:#263238;" d="M364.369,227.304c-0.08-0.082-0.211-0.083-0.293-0.004c-0.019,0.019-1.941,1.843-4.972,1.239
						c-0.112-0.022-0.221,0.05-0.244,0.163c-0.022,0.112,0.05,0.221,0.163,0.243c0.514,0.103,0.997,0.141,1.446,0.132
						c2.391-0.044,3.825-1.412,3.895-1.481C364.447,227.517,364.449,227.386,364.369,227.304z"/>
					<path style="fill:#630F0F;" d="M358.976,220.161c0,0-2.504,3.647-4.685,5.213c0.956,1.377,3.157,1.273,3.157,1.273
						L358.976,220.161z"/>
					<path style="fill:#263238;" d="M355.462,220.404c0.452,0.09,0.949-0.394,1.111-1.08c0.162-0.687-0.074-1.316-0.525-1.406
						c-0.452-0.09-0.949,0.394-1.111,1.08C354.775,219.685,355.01,220.315,355.462,220.404z"/>
					<path style="fill:#263238;" d="M363.275,221.961c0.452,0.09,0.949-0.394,1.111-1.08c0.162-0.686-0.073-1.315-0.525-1.406
						c-0.452-0.09-0.949,0.394-1.111,1.08C362.588,221.242,362.824,221.871,363.275,221.961z"/>
					<path style="fill:#263238;" d="M373.513,212.999c-0.275,0.016-0.582,0.025-0.914,0.026c-0.479,1.109-0.887,2.53-1.187,4.346
						c-0.661,4.001,0.693,7.02,2.184,9.026c2.051,3.483,4.676,3.385,6.951,0.732c3.664-3.516,7.191-10.526-0.094-16.031
						C379.309,212.077,377.158,212.786,373.513,212.999z"/>
					<path style="fill:#7F3E3B;" d="M378.607,225.071c-1.652-0.677-3.523,0.118-5.011,1.326c-0.848,0.688-1.573,1.508-2.061,2.27
						c-1.415,2.21-0.913,4.784,1.619,5.003c0.141,0.012,0.284,0.021,0.437,0.018c0.196-0.003,0.397-0.02,0.599-0.04
						c1.793-0.173,3.781-0.975,5.274-2.501c1.133-1.159,1.5-2.72,1.084-4.018C380.266,226.252,379.637,225.493,378.607,225.071z"/>
					<path style="fill:#263238;" d="M358.68,209.396c3.657,2.754,10.317,3.645,13.918,3.63c0.332-0.001,0.639-0.01,0.914-0.026
						c3.645-0.213,5.796-0.922,6.94-1.901c4.227-3.618-5.408-10.965-5.408-10.965s1.075,2.637-1.166,3.364
						c-2.241,0.727-18.034-5.147-17.765,1.519c0.04,0.986,0.356,1.858,0.871,2.632C357.418,208.3,357.996,208.88,358.68,209.396z"/>
					<path style="fill:#263238;" d="M341.7,328.813c0,0-0.27,2.332-0.689,6.264c7.63,2.58,15.794,3.999,24.294,3.999
						c8.017,0,15.738-1.253,22.991-3.558c0.108-4.746,0.173-7.583,0.173-7.583l-29.698,0.558l-0.579,0.011L341.7,328.813z"/>
					<g>
						<path style="fill:#7F3E3B;" d="M419.02,288.544c-0.081-0.836-0.282-1.691-0.577-2.495c-0.154-0.395-0.315-0.799-0.511-1.157
							l-0.295-0.546l-0.161-0.272c-1.42-2.464-2.97-4.792-4.595-7.039l-9.084,8.756c1.209,1.496,2.373,3.005,3.455,4.542
							c-0.15,0.395-0.408,0.913-0.768,1.445c-1.188,1.759-2.994,3.712-4.952,5.51c-3.719,3.463-8.036,6.765-12.296,9.928
							l-1.386,0.188l-5.582,0.758l-5.487,3.705l3.607,7.346l4.538-2.325c0,0,1.521-0.176,3.191-0.749
							c1.539-0.528,3.203-1.393,3.929-2.781c2.71-1.061,5.243-2.246,7.798-3.56c2.679-1.391,5.306-2.925,7.892-4.684
							c1.29-0.887,2.56-1.842,3.822-2.896c1.263-1.052,2.509-2.215,3.706-3.628c1.181-1.435,2.41-3.067,3.259-5.567
							C418.935,291.779,419.19,290.226,419.02,288.544z M407.333,290.118c-0.005-0.051-0.02-0.105-0.02-0.15
							c-0.001-0.242,0.084-0.328,0.085-0.185C407.401,289.857,407.377,289.975,407.333,290.118z"/>
					</g>
				</g>
			</g>
			<g>
				
					<ellipse transform="matrix(0.1602 -0.9871 0.9871 0.1602 -63.5934 552.6312)" style="fill:#263238;" cx="292.973" cy="313.688" rx="27.45" ry="27.45"/>
				<path style="fill:#FFFFFF;" d="M308.065,311.119h-12.522v-12.522c0-1.413-1.156-2.569-2.57-2.569
					c-1.413,0-2.569,1.156-2.569,2.569v12.522h-12.522c-1.413,0-2.57,1.156-2.57,2.57c0,1.413,1.156,2.57,2.57,2.57h12.522v12.522
					c0,1.413,1.156,2.569,2.569,2.569c1.413,0,2.57-1.156,2.57-2.569v-12.522h12.522c1.413,0,2.57-1.156,2.57-2.57
					C310.634,312.275,309.478,311.119,308.065,311.119z"/>
			</g>
		</g>
		<path style="fill:#263238;" d="M364.774,216.762c0.078,0.011,1.536,0.238,2.275,1.855c0.071,0.155,0.225,0.245,0.384,0.242
			c0.055-0.001,0.111-0.013,0.164-0.037c0.208-0.095,0.3-0.341,0.205-0.549c-0.94-2.057-2.842-2.321-2.922-2.331
			c-0.225-0.029-0.434,0.131-0.463,0.358C364.388,216.525,364.547,216.733,364.774,216.762z"/>
	</g>
</g>
</svg>
